<?xml version="1.0" standalone="no"?>
<!DOCTYPE svg PUBLIC "-//W3C//DTD SVG 20010904//EN"
 "http://www.w3.org/TR/2001/REC-SVG-20010904/DTD/svg10.dtd">
<svg version="1.0" xmlns="http://www.w3.org/2000/svg"
 width="1280.000000pt" height="1109.000000pt" viewBox="0 0 1280.000000 1109.000000"
 preserveAspectRatio="xMidYMid meet">
<metadata>
Created by potrace 1.15, written by Peter Selinger 2001-2017
</metadata>
<g transform="translate(0.000000,1109.000000) scale(0.100000,-0.100000)"
fill="#000000" stroke="none">
<path d="M943 11009 c3 -46 20 -185 37 -309 50 -362 50 -480 3 -480 -34 0 -83
40 -241 193 -164 160 -240 223 -253 210 -7 -8 28 -437 106 -1303 42 -469 43
-452 -39 -630 -68 -145 -167 -413 -235 -630 -115 -370 -136 -507 -127 -805 3
-110 13 -240 21 -290 35 -217 4 -287 -147 -335 -44 -13 -68 -43 -68 -81 0 -43
19 -51 79 -33 73 21 123 16 138 -16 6 -14 19 -78 28 -143 19 -144 43 -224 90
-302 52 -87 117 -135 181 -135 57 0 122 -67 110 -114 -6 -26 -51 -64 -176
-151 -171 -119 -309 -283 -380 -451 -30 -69 -34 -93 -38 -184 -5 -120 5 -168
47 -231 57 -85 199 -181 331 -225 78 -26 215 -24 297 5 169 58 303 181 434
398 68 113 143 189 195 199 31 6 47 2 89 -20 27 -15 65 -40 84 -56 l34 -29
-66 -208 c-77 -244 -112 -374 -132 -498 -24 -147 -19 -205 17 -205 27 0 50 58
94 230 69 276 198 615 242 639 11 6 43 11 71 11 l51 0 0 -242 c0 -260 12 -466
29 -495 9 -16 11 -15 20 8 15 42 29 129 56 351 36 302 44 329 111 388 58 51
94 61 249 70 148 9 194 20 345 86 45 19 87 29 136 32 l71 4 20 -33 c11 -19 30
-59 42 -89 30 -75 82 -143 125 -164 41 -19 63 -16 203 34 299 106 511 301 740
679 152 252 179 293 216 331 86 90 136 64 385 -199 l132 -139 -59 -140 c-128
-304 -150 -398 -157 -687 -6 -263 -13 -342 -29 -359 -19 -19 -103 -25 -475
-36 -339 -9 -501 -26 -618 -61 -149 -46 -274 -135 -352 -249 -94 -138 -203
-374 -244 -530 -13 -48 -29 -97 -35 -109 -29 -54 -105 -8 -258 156 -62 66
-126 126 -143 133 -27 11 -36 10 -93 -18 -135 -67 -417 -365 -584 -615 -106
-161 -143 -258 -143 -382 0 -224 139 -437 485 -745 226 -200 461 -361 688
-470 106 -52 466 -185 567 -210 69 -17 289 -30 725 -42 l439 -11 74 79 c128
137 127 133 126 303 0 180 -14 239 -125 539 -126 339 -178 540 -204 791 -8 75
-15 139 -15 143 0 11 60 16 450 43 406 28 504 38 665 66 154 26 285 63 371
104 40 19 81 35 90 35 8 0 51 -16 95 -35 43 -19 106 -39 139 -44 33 -6 65 -13
70 -16 14 -9 12 -161 -6 -497 -9 -161 -17 -401 -18 -533 l-1 -240 27 -51 c77
-146 242 -309 470 -463 199 -135 198 -173 -15 -460 -59 -79 -124 -177 -143
-217 -32 -63 -36 -82 -36 -146 -1 -196 86 -341 271 -451 157 -94 430 -198 567
-218 213 -31 784 28 1149 118 77 19 201 47 275 63 74 16 222 54 328 84 244 71
290 78 412 59 52 -8 122 -18 155 -23 33 -6 161 -14 285 -20 314 -14 919 -49
955 -55 17 -3 129 -5 250 -6 251 -1 348 11 526 65 168 51 180 53 360 80 181
27 272 54 386 116 242 130 369 269 418 455 39 149 44 401 10 509 -44 144 -184
293 -330 353 -87 36 -163 47 -315 47 -172 -1 -293 -18 -605 -84 -432 -92 -614
-122 -859 -141 -270 -21 -630 10 -746 64 -28 14 -87 65 -161 139 -135 137
-158 150 -324 178 -148 25 -259 25 -405 0 -301 -52 -518 -3 -715 162 -104 86
-403 390 -487 493 -225 278 -296 588 -238 1043 14 113 32 161 98 267 72 116
140 262 187 400 46 135 68 180 109 223 38 41 67 57 154 84 98 30 135 52 206
121 149 146 351 525 459 862 107 335 163 710 125 838 -35 115 -190 194 -414
212 l-90 7 -29 -99 c-33 -115 -64 -183 -82 -183 -16 0 -29 21 -96 146 -62 116
-97 147 -219 195 -61 24 -104 34 -160 37 -77 4 -78 4 -112 -30 -30 -30 -35
-42 -41 -103 -8 -88 -30 -169 -50 -185 -9 -7 -17 -11 -19 -9 -2 2 -43 65 -91
139 -181 279 -248 317 -850 484 -382 106 -529 151 -958 292 -525 173 -582 187
-777 189 -85 1 -164 5 -176 8 -58 20 -62 118 -15 436 18 117 31 232 29 255 -3
41 -3 41 -46 44 -24 2 -64 -1 -89 -6 l-45 -10 6 47 c15 117 57 626 59 708 1
58 -2 96 -9 103 -13 13 -179 46 -424 85 -1242 198 -1961 551 -2805 1375 -249
244 -422 406 -459 433 l-29 21 6 -85z m932 -2963 c-32 -208 -212 -759 -328
-1008 -152 -326 -439 -767 -529 -814 -28 -15 -30 -14 -63 19 -25 25 -40 55
-60 123 -34 111 -58 154 -147 257 -68 79 -128 163 -141 200 -18 48 36 113 262
316 97 88 333 317 525 511 356 359 460 455 477 444 6 -3 8 -23 4 -48z m2160
-171 c230 -58 353 -175 363 -345 4 -70 2 -78 -27 -120 -17 -25 -74 -94 -127
-155 -66 -75 -107 -133 -130 -180 -32 -68 -71 -223 -95 -375 -26 -166 -15
-150 -259 -381 -242 -230 -388 -383 -589 -617 -94 -111 -204 -231 -244 -267
-63 -58 -85 -71 -197 -114 -211 -83 -365 -121 -488 -121 -103 0 -140 14 -197
75 l-51 54 -24 -45 c-45 -85 -103 -106 -143 -52 -19 26 -20 33 -9 117 12 86 9
121 -9 121 -15 0 -49 -43 -85 -108 -46 -81 -82 -105 -147 -97 -105 13 -318
117 -462 226 -111 83 -246 218 -278 278 -25 46 -27 54 -17 92 11 40 59 95 162
187 20 18 81 90 136 160 115 147 186 218 331 326 57 44 167 140 245 215 175
169 253 228 631 473 346 225 474 299 710 414 253 123 406 181 618 234 148 38
249 39 382 5z m44 -1566 c13 -24 13 -33 -4 -89 -57 -189 -397 -703 -600 -906
-63 -64 -98 -89 -165 -122 -113 -56 -157 -62 -196 -29 -77 67 -5 230 215 487
119 138 351 390 466 506 176 177 248 216 284 153z"/>
</g>
</svg>
