<?xml version="1.0" standalone="no"?><svg xmlns="http://www.w3.org/2000/svg" viewBox="0 0 1440 320"><path fill="#333" fill-opacity="0.7" d="M0,288L20,288C40,288,80,288,120,277.3C160,267,200,245,240,208C280,171,320,117,360,112C400,107,440,149,480,181.3C520,213,560,235,600,240C640,245,680,235,720,213.3C760,192,800,160,840,170.7C880,181,920,235,960,224C1000,213,1040,139,1080,112C1120,85,1160,107,1200,122.7C1240,139,1280,149,1320,138.7C1360,128,1400,96,1420,80L1440,64L1440,0L1420,0C1400,0,1360,0,1320,0C1280,0,1240,0,1200,0C1160,0,1120,0,1080,0C1040,0,1000,0,960,0C920,0,880,0,840,0C800,0,760,0,720,0C680,0,640,0,600,0C560,0,520,0,480,0C440,0,400,0,360,0C320,0,280,0,240,0C200,0,160,0,120,0C80,0,40,0,20,0L0,0Z"></path></svg>